<mxfile host="drawio-plugin" modified="2023-07-16T13:18:59.966Z" agent="5.0 (Windows NT 6.2; Win64; x64) AppleWebKit/537.36 (KHTML, like Gecko) Chrome/104.0.5112.102 Safari/537.36" etag="6Dk5Y7xmqIKD6Tj32kE6" version="20.5.3" type="embed"><diagram name="ページ1" id="sGEo0UJNZYijkUZ8jV_a"><mxGraphModel dx="620" dy="507" grid="1" gridSize="10" guides="1" tooltips="1" connect="1" arrows="1" fold="1" page="1" pageScale="1" pageWidth="827" pageHeight="1169" math="0" shadow="0"><root><mxCell id="0"/><mxCell id="1" parent="0"/><mxCell id="45" value="&amp;nbsp;GCP" style="whiteSpace=wrap;html=1;align=left;verticalAlign=top;" vertex="1" parent="1"><mxGeometry x="200" y="10" width="600" height="730" as="geometry"/></mxCell><mxCell id="30" style="edgeStyle=orthogonalEdgeStyle;rounded=0;orthogonalLoop=1;jettySize=auto;html=1;entryX=0.5;entryY=0;entryDx=0;entryDy=0;" edge="1" parent="1" source="D61iPXv_fn5f8yodZJ7I-1" target="29"><mxGeometry relative="1" as="geometry"/></mxCell><mxCell id="38" value="REST" style="edgeLabel;html=1;align=center;verticalAlign=middle;resizable=0;points=[];" vertex="1" connectable="0" parent="30"><mxGeometry x="0.219" y="-2" relative="1" as="geometry"><mxPoint x="2" y="-7" as="offset"/></mxGeometry></mxCell><mxCell id="D61iPXv_fn5f8yodZJ7I-1" value="WEB&lt;br&gt;アプリケーション" style="rounded=1;whiteSpace=wrap;html=1;" parent="1" vertex="1"><mxGeometry x="241" y="40" width="100" height="80" as="geometry"/></mxCell><mxCell id="36" style="edgeStyle=orthogonalEdgeStyle;rounded=0;orthogonalLoop=1;jettySize=auto;html=1;entryX=0;entryY=0.5;entryDx=0;entryDy=0;startArrow=none;startFill=0;endArrow=open;endFill=0;" edge="1" parent="1" source="D61iPXv_fn5f8yodZJ7I-6" target="D61iPXv_fn5f8yodZJ7I-1"><mxGeometry relative="1" as="geometry"/></mxCell><mxCell id="D61iPXv_fn5f8yodZJ7I-6" value="クライアント&lt;br&gt;(WEBブラウザ)" style="sketch=0;pointerEvents=1;shadow=0;dashed=0;html=1;strokeColor=none;fillColor=#505050;labelPosition=center;verticalLabelPosition=bottom;verticalAlign=top;outlineConnect=0;align=center;shape=mxgraph.office.devices.lcd_monitor;" parent="1" vertex="1"><mxGeometry x="100" y="56" width="58" height="48" as="geometry"/></mxCell><mxCell id="D61iPXv_fn5f8yodZJ7I-12" value="" style="group" parent="1" vertex="1" connectable="0"><mxGeometry x="490" y="180" width="180" height="110" as="geometry"/></mxCell><mxCell id="D61iPXv_fn5f8yodZJ7I-7" value="　預金口座管理API (Account)" style="rounded=1;whiteSpace=wrap;html=1;align=left;verticalAlign=top;fontStyle=1" parent="D61iPXv_fn5f8yodZJ7I-12" vertex="1"><mxGeometry width="180" height="110" as="geometry"/></mxCell><mxCell id="D61iPXv_fn5f8yodZJ7I-9" value="APIサーバ" style="rounded=1;whiteSpace=wrap;html=1;arcSize=0;" parent="D61iPXv_fn5f8yodZJ7I-12" vertex="1"><mxGeometry x="20" y="40" width="70" height="30" as="geometry"/></mxCell><mxCell id="D61iPXv_fn5f8yodZJ7I-10" value="DB" style="shape=cylinder3;whiteSpace=wrap;html=1;boundedLbl=1;backgroundOutline=1;size=15;" parent="D61iPXv_fn5f8yodZJ7I-12" vertex="1"><mxGeometry x="110" y="25" width="60" height="60" as="geometry"/></mxCell><mxCell id="2" value="" style="group" vertex="1" connectable="0" parent="1"><mxGeometry x="490" y="320" width="180" height="110" as="geometry"/></mxCell><mxCell id="3" value="　貯蓄口座管理API (Saving)" style="rounded=1;whiteSpace=wrap;html=1;align=left;verticalAlign=top;fontStyle=1" vertex="1" parent="2"><mxGeometry width="180" height="110" as="geometry"/></mxCell><mxCell id="4" value="APIサーバ" style="rounded=1;whiteSpace=wrap;html=1;arcSize=0;" vertex="1" parent="2"><mxGeometry x="20" y="40" width="70" height="30" as="geometry"/></mxCell><mxCell id="5" value="DB" style="shape=cylinder3;whiteSpace=wrap;html=1;boundedLbl=1;backgroundOutline=1;size=15;" vertex="1" parent="2"><mxGeometry x="110" y="25" width="60" height="60" as="geometry"/></mxCell><mxCell id="6" value="" style="group" vertex="1" connectable="0" parent="1"><mxGeometry x="490" y="460" width="180" height="110" as="geometry"/></mxCell><mxCell id="7" value="　バーチャルデビット管理API (Virtual Debit)" style="rounded=1;whiteSpace=wrap;html=1;align=left;verticalAlign=top;fontStyle=1" vertex="1" parent="6"><mxGeometry width="180" height="110" as="geometry"/></mxCell><mxCell id="8" value="APIサーバ" style="rounded=1;whiteSpace=wrap;html=1;arcSize=0;" vertex="1" parent="6"><mxGeometry x="20" y="40" width="70" height="30" as="geometry"/></mxCell><mxCell id="9" value="DB" style="shape=cylinder3;whiteSpace=wrap;html=1;boundedLbl=1;backgroundOutline=1;size=15;" vertex="1" parent="6"><mxGeometry x="110" y="25" width="60" height="60" as="geometry"/></mxCell><mxCell id="10" value="" style="group" vertex="1" connectable="0" parent="1"><mxGeometry x="490" y="610" width="340" height="110" as="geometry"/></mxCell><mxCell id="11" value="　顧客管理API (Customer)" style="rounded=1;whiteSpace=wrap;html=1;align=left;verticalAlign=top;fontStyle=1" vertex="1" parent="10"><mxGeometry width="180" height="110" as="geometry"/></mxCell><mxCell id="12" value="APIサーバ" style="rounded=1;whiteSpace=wrap;html=1;arcSize=0;" vertex="1" parent="10"><mxGeometry x="20" y="40" width="70" height="30" as="geometry"/></mxCell><mxCell id="13" value="DB" style="shape=cylinder3;whiteSpace=wrap;html=1;boundedLbl=1;backgroundOutline=1;size=15;" vertex="1" parent="10"><mxGeometry x="110" y="25" width="60" height="60" as="geometry"/></mxCell><mxCell id="20" value="DB" style="shape=cylinder3;whiteSpace=wrap;html=1;boundedLbl=1;backgroundOutline=1;size=15;" vertex="1" parent="1"><mxGeometry x="720" y="205" width="60" height="60" as="geometry"/></mxCell><mxCell id="21" style="edgeStyle=orthogonalEdgeStyle;rounded=0;orthogonalLoop=1;jettySize=auto;html=1;entryX=0.5;entryY=1;entryDx=0;entryDy=0;entryPerimeter=0;" edge="1" parent="1" source="13" target="20"><mxGeometry relative="1" as="geometry"/></mxCell><mxCell id="53" value="レプリケーション" style="edgeLabel;html=1;align=center;verticalAlign=middle;resizable=0;points=[];" vertex="1" connectable="0" parent="21"><mxGeometry x="-0.3557" y="-3" relative="1" as="geometry"><mxPoint x="-3" as="offset"/></mxGeometry></mxCell><mxCell id="19" value="DB" style="shape=cylinder3;whiteSpace=wrap;html=1;boundedLbl=1;backgroundOutline=1;size=15;" vertex="1" parent="1"><mxGeometry x="720" y="345" width="60" height="60" as="geometry"/></mxCell><mxCell id="18" value="DB" style="shape=cylinder3;whiteSpace=wrap;html=1;boundedLbl=1;backgroundOutline=1;size=15;" vertex="1" parent="1"><mxGeometry x="720" y="485" width="60" height="60" as="geometry"/></mxCell><mxCell id="29" value="　API Gateway" style="rounded=1;whiteSpace=wrap;html=1;align=left;verticalAlign=top;fontStyle=1" vertex="1" parent="1"><mxGeometry x="241" y="180" width="100" height="540" as="geometry"/></mxCell><mxCell id="31" value="" style="edgeStyle=orthogonalEdgeStyle;rounded=0;orthogonalLoop=1;jettySize=auto;html=1;startArrow=classic;startFill=1;" edge="1" parent="1" source="D61iPXv_fn5f8yodZJ7I-7" target="29"><mxGeometry relative="1" as="geometry"/></mxCell><mxCell id="37" value="gRPC" style="edgeLabel;html=1;align=center;verticalAlign=middle;resizable=0;points=[];" vertex="1" connectable="0" parent="31"><mxGeometry x="-0.7033" y="-1" relative="1" as="geometry"><mxPoint x="-56" y="206" as="offset"/></mxGeometry></mxCell><mxCell id="32" value="" style="edgeStyle=orthogonalEdgeStyle;rounded=0;orthogonalLoop=1;jettySize=auto;html=1;startArrow=classic;startFill=1;" edge="1" parent="1" source="3" target="29"><mxGeometry relative="1" as="geometry"/></mxCell><mxCell id="33" value="" style="edgeStyle=orthogonalEdgeStyle;rounded=0;orthogonalLoop=1;jettySize=auto;html=1;startArrow=classic;startFill=1;" edge="1" parent="1" source="7" target="29"><mxGeometry relative="1" as="geometry"/></mxCell><mxCell id="35" value="" style="edgeStyle=orthogonalEdgeStyle;rounded=0;orthogonalLoop=1;jettySize=auto;html=1;startArrow=classic;startFill=1;" edge="1" parent="1" source="11" target="29"><mxGeometry relative="1" as="geometry"/></mxCell><mxCell id="47" value="" style="edgeStyle=orthogonalEdgeStyle;rounded=0;orthogonalLoop=1;jettySize=auto;html=1;startArrow=none;startFill=0;endArrow=open;endFill=0;" edge="1" parent="1" source="D61iPXv_fn5f8yodZJ7I-10" target="20"><mxGeometry relative="1" as="geometry"/></mxCell><mxCell id="50" value="参照" style="edgeLabel;html=1;align=center;verticalAlign=middle;resizable=0;points=[];" vertex="1" connectable="0" parent="47"><mxGeometry x="-0.1714" relative="1" as="geometry"><mxPoint x="5" as="offset"/></mxGeometry></mxCell><mxCell id="48" value="" style="edgeStyle=orthogonalEdgeStyle;rounded=0;orthogonalLoop=1;jettySize=auto;html=1;startArrow=none;startFill=0;endArrow=open;endFill=0;" edge="1" parent="1" source="5" target="19"><mxGeometry relative="1" as="geometry"/></mxCell><mxCell id="51" value="参照" style="edgeLabel;html=1;align=center;verticalAlign=middle;resizable=0;points=[];" vertex="1" connectable="0" parent="48"><mxGeometry x="-0.2349" relative="1" as="geometry"><mxPoint x="7" as="offset"/></mxGeometry></mxCell><mxCell id="49" value="" style="edgeStyle=orthogonalEdgeStyle;rounded=0;orthogonalLoop=1;jettySize=auto;html=1;startArrow=none;startFill=0;endArrow=open;endFill=0;" edge="1" parent="1" source="9" target="18"><mxGeometry relative="1" as="geometry"/></mxCell><mxCell id="52" value="参照" style="edgeLabel;html=1;align=center;verticalAlign=middle;resizable=0;points=[];" vertex="1" connectable="0" parent="49"><mxGeometry x="-0.2032" y="2" relative="1" as="geometry"><mxPoint x="6" y="2" as="offset"/></mxGeometry></mxCell></root></mxGraphModel></diagram></mxfile>